<?xml version="1.0" encoding="UTF-8"?>
<!DOCTYPE svg PUBLIC "-//W3C//DTD SVG 1.1//EN" "http://www.w3.org/Graphics/SVG/1.1/DTD/svg11.dtd">
<svg xmlns="http://www.w3.org/2000/svg" version="1.1" width="128px" height="128px" style="shape-rendering:geometricPrecision; text-rendering:geometricPrecision; image-rendering:optimizeQuality; fill-rule:evenodd; clip-rule:evenodd" xmlns:xlink="http://www.w3.org/1999/xlink">
<g><path style="opacity:0.95" fill="#fefffe" d="M 67.5,11.5 C 78.5983,13.7466 83.765,20.4133 83,31.5C 76.5316,38.9695 69.6983,46.1362 62.5,53C 78.8333,53.3333 95.1667,53.6667 111.5,54C 117.946,56.3908 120.279,61.0575 118.5,68C 119.975,74.3804 117.975,79.047 112.5,82C 95.5,82.3333 78.5,82.6667 61.5,83C 68.6667,90.1667 75.8333,97.3333 83,104.5C 83.9486,114.913 79.2819,121.58 69,124.5C 67.1118,124.204 65.2784,123.704 63.5,123C 47,106.5 30.5,90 14,73.5C 12,69.8333 12,66.1667 14,62.5C 30.1667,46.3333 46.3333,30.1667 62.5,14C 64.3146,13.2432 65.9812,12.4098 67.5,11.5 Z"/></g>
</svg>
