<?xml version="1.0" standalone="no"?>
<!DOCTYPE svg PUBLIC "-//W3C//DTD SVG 20010904//EN"
 "http://www.w3.org/TR/2001/REC-SVG-20010904/DTD/svg10.dtd">
<svg version="1.0" xmlns="http://www.w3.org/2000/svg"
 width="128.000000pt" height="128.000000pt" viewBox="0 0 128.000000 128.000000"
 preserveAspectRatio="xMidYMid meet">

<g transform="translate(0.000000,128.000000) scale(0.100000,-0.100000)"
fill="#000000" stroke="none">
<path d="M526 1018 c-65 -63 -304 -336 -310 -356 -4 -11 -2 -30 3 -43 14 -39
322 -379 348 -385 29 -8 81 13 93 37 6 10 10 31 10 48 0 26 -23 57 -131 176
l-130 145 130 146 c133 148 144 168 125 219 -8 19 -55 45 -84 45 -11 0 -36
-15 -54 -32z"/>
<path d="M937 1030 c-24 -19 -238 -254 -300 -328 -47 -58 -40 -77 80 -214 174
-198 235 -258 265 -258 54 0 99 62 79 112 -5 13 -64 83 -130 157 -67 73 -121
137 -121 141 0 4 54 68 121 141 66 74 125 144 130 157 13 32 1 69 -28 92 -33
25 -64 25 -96 0z"/>
</g>
</svg>
