<?xml version="1.0" encoding="UTF-8"?>
<!DOCTYPE svg PUBLIC "-//W3C//DTD SVG 1.1//EN" "http://www.w3.org/Graphics/SVG/1.1/DTD/svg11.dtd">
<svg xmlns="http://www.w3.org/2000/svg" version="1.1" width="128px" height="128px" style="shape-rendering:geometricPrecision; text-rendering:geometricPrecision; image-rendering:optimizeQuality; fill-rule:evenodd; clip-rule:evenodd" xmlns:xlink="http://www.w3.org/1999/xlink">
<g><path style="opacity:0.923" fill="#000000" d="M 25.5,22.5 C 28.1873,22.3359 30.854,22.5026 33.5,23C 44.3689,34.2005 54.8689,45.7005 65,57.5C 67.7865,60.9671 68.1198,64.6338 66,68.5C 55.5353,80.6331 44.702,92.4664 33.5,104C 23.8359,106 19.6692,102.167 21,92.5C 29.3545,82.98 37.5211,73.3133 45.5,63.5C 37.5211,53.6867 29.3545,44.02 21,34.5C 19.4742,29.2389 20.9742,25.2389 25.5,22.5 Z"/></g>
<g><path style="opacity:0.92" fill="#000000" d="M 64.5,22.5 C 67.9783,22.1842 71.3117,22.6842 74.5,24C 85.3738,35.8716 95.8738,48.0383 106,60.5C 106.996,64.2072 106.33,67.5405 104,70.5C 93.7973,81.0342 83.9639,91.8676 74.5,103C 63.1084,106.912 58.6084,103.078 61,91.5C 68.9804,82.0186 77.147,72.6853 85.5,63.5C 77.8516,54.684 70.0182,46.0173 62,37.5C 58.263,31.6903 59.0963,26.6903 64.5,22.5 Z"/></g>
</svg>
