<?xml version="1.0" encoding="UTF-8"?>
<!DOCTYPE svg PUBLIC "-//W3C//DTD SVG 1.1//EN" "http://www.w3.org/Graphics/SVG/1.1/DTD/svg11.dtd">
<svg xmlns="http://www.w3.org/2000/svg" version="1.1" width="128px" height="128px" style="shape-rendering:geometricPrecision; text-rendering:geometricPrecision; image-rendering:optimizeQuality; fill-rule:evenodd; clip-rule:evenodd" xmlns:xlink="http://www.w3.org/1999/xlink">
<g><path style="opacity:0.941" fill="#535559" d="M 61.5,2.5 C 83.2361,3.10437 98.0695,13.4377 106,33.5C 110.378,50.3122 107.045,65.3122 96,78.5C 95.8248,93.4078 95.3248,108.241 94.5,123C 92.1667,123.667 89.8333,123.667 87.5,123C 79.5414,119.403 71.5414,115.903 63.5,112.5C 55.4586,115.903 47.4586,119.403 39.5,123C 36.9009,123.769 34.4009,123.602 32,122.5C 31.6667,107.833 31.3333,93.1667 31,78.5C 20.8369,66.6634 17.1703,52.9967 20,37.5C 26.283,16.7881 40.1164,5.12141 61.5,2.5 Z M 55.5,12.5 C 76.8399,10.3588 91.0066,19.3588 98,39.5C 100.083,65.0849 88.4167,79.7516 63,83.5C 38.1161,79.2847 26.7828,64.618 29,39.5C 33.3506,25.9836 42.1839,16.9836 55.5,12.5 Z M 62.5,28.5 C 63.552,28.3505 64.552,28.5172 65.5,29C 66.9876,33.3253 69.6543,36.6587 73.5,39C 76.5706,39.1466 79.4039,39.9799 82,41.5C 82.6667,42.8333 82.6667,44.1667 82,45.5C 78.5538,47.0501 76.5538,49.7168 76,53.5C 75.7852,56.8557 75.7852,60.189 76,63.5C 73.451,66.0063 70.951,65.8396 68.5,63C 66.8333,62.8333 65.1667,62.6667 63.5,62.5C 59.6021,62.811 55.9354,63.6444 52.5,65C 50.1671,62.4786 49.8338,59.6453 51.5,56.5C 50.8743,51.9142 48.7077,48.2476 45,45.5C 44.2025,43.7412 44.3691,42.0745 45.5,40.5C 53.9417,40.3867 59.6084,36.3867 62.5,28.5 Z M 39.5,85.5 C 51.1945,91.5623 63.5279,93.0623 76.5,90C 80.1612,89.171 83.4946,87.671 86.5,85.5C 87.8333,94.5 87.8333,103.5 86.5,112.5C 79.1295,108.644 71.4629,105.644 63.5,103.5C 55.5371,105.644 47.8705,108.644 40.5,112.5C 39.5018,103.525 39.1685,94.5246 39.5,85.5 Z"/></g>
<g><path style="opacity:0.923" fill="#535559" d="M 58.5,19.5 C 67.7332,17.6125 73.7332,21.1125 76.5,30C 88.8361,31.1893 93.3361,37.6893 90,49.5C 88.2679,51.9394 86.4345,54.2728 84.5,56.5C 85.6427,72.782 78.6427,77.4487 63.5,70.5C 54.8088,76.7475 47.6421,75.4141 42,66.5C 41.2483,63.1064 41.4149,59.773 42.5,56.5C 40.072,53.3039 37.9054,49.9706 36,46.5C 34.9379,36.5543 39.4379,31.0543 49.5,30C 51.6459,25.6933 54.6459,22.1933 58.5,19.5 Z M 62.5,28.5 C 59.6084,36.3867 53.9417,40.3867 45.5,40.5C 44.3691,42.0745 44.2025,43.7412 45,45.5C 48.7077,48.2476 50.8743,51.9142 51.5,56.5C 49.8338,59.6453 50.1671,62.4786 52.5,65C 55.9354,63.6444 59.6021,62.811 63.5,62.5C 65.1667,62.6667 66.8333,62.8333 68.5,63C 70.951,65.8396 73.451,66.0063 76,63.5C 75.7852,60.189 75.7852,56.8557 76,53.5C 76.5538,49.7168 78.5538,47.0501 82,45.5C 82.6667,44.1667 82.6667,42.8333 82,41.5C 79.4039,39.9799 76.5706,39.1466 73.5,39C 69.6543,36.6587 66.9876,33.3253 65.5,29C 64.552,28.5172 63.552,28.3505 62.5,28.5 Z"/></g>
</svg>
