<?xml version="1.0" encoding="UTF-8"?>
<!DOCTYPE svg PUBLIC "-//W3C//DTD SVG 1.1//EN" "http://www.w3.org/Graphics/SVG/1.1/DTD/svg11.dtd">
<svg xmlns="http://www.w3.org/2000/svg" version="1.1" width="288px" height="288px" style="shape-rendering:geometricPrecision; text-rendering:geometricPrecision; image-rendering:optimizeQuality; fill-rule:evenodd; clip-rule:evenodd" xmlns:xlink="http://www.w3.org/1999/xlink">
<g><path style="opacity:0.981" fill="#fefffe" d="M -0.5,51.5 C -0.5,47.8333 -0.5,44.1667 -0.5,40.5C 1.01027,39.1639 2.67694,37.9973 4.5,37C 15.5,36.3333 26.5,36.3333 37.5,37C 39.3333,38.1667 40.8333,39.6667 42,41.5C 44.1467,52.091 46.9801,62.4243 50.5,72.5C 123.126,71.3367 195.793,71.17 268.5,72C 280.866,74.0396 285.7,81.2063 283,93.5C 273,124.167 263,154.833 253,185.5C 250.203,191.97 245.37,195.803 238.5,197C 181.833,197.333 125.167,197.667 68.5,198C 67.0941,203.123 65.7608,208.289 64.5,213.5C 129.164,214.333 193.831,214.833 258.5,215C 263.155,217.897 264.655,222.063 263,227.5C 262.535,228.931 261.701,230.097 260.5,231C 224.917,232.161 189.25,232.661 153.5,232.5C 117.75,232.661 82.0833,232.161 46.5,231C 44.6572,228.648 43.6572,225.981 43.5,223C 46.4357,208.821 49.4357,194.655 52.5,180.5C 44.5974,138.653 35.9307,96.9862 26.5,55.5C 19.825,55.6663 13.1583,55.4996 6.5,55C 3.86077,54.3471 1.52743,53.1804 -0.5,51.5 Z"/></g>
<g><path style="opacity:0.935" fill="#fefffe" d="M 66.5,249.5 C 85.9233,250.429 92.4233,260.096 86,278.5C 77.7841,287.454 68.6174,288.62 58.5,282C 51.5432,274.145 50.7099,265.645 56,256.5C 58.9978,253.262 62.4978,250.929 66.5,249.5 Z"/></g>
<g><path style="opacity:0.934" fill="#fefffe" d="M 226.5,249.5 C 245.923,250.429 252.423,260.096 246,278.5C 238.348,286.955 229.515,288.455 219.5,283C 211.628,275.09 210.462,266.257 216,256.5C 218.998,253.262 222.498,250.929 226.5,249.5 Z"/></g>
</svg>
