<?xml version="1.0" encoding="UTF-8"?>
<!DOCTYPE svg PUBLIC "-//W3C//DTD SVG 1.1//EN" "http://www.w3.org/Graphics/SVG/1.1/DTD/svg11.dtd">
<svg xmlns="http://www.w3.org/2000/svg" version="1.1" width="288px" height="288px" style="shape-rendering:geometricPrecision; text-rendering:geometricPrecision; image-rendering:optimizeQuality; fill-rule:evenodd; clip-rule:evenodd" xmlns:xlink="http://www.w3.org/1999/xlink">
<g><path style="opacity:0.989" fill="#241143" d="M 51.5,23.5 C 68.8365,23.3334 86.1699,23.5001 103.5,24C 119.631,28.4663 129.131,38.9663 132,55.5C 132.667,71.1667 132.667,86.8333 132,102.5C 128.913,119.919 118.747,130.419 101.5,134C 85.8333,134.667 70.1667,134.667 54.5,134C 38.5248,130.691 28.3581,121.191 24,105.5C 23.3333,87.5 23.3333,69.5 24,51.5C 28.0247,36.9763 37.1913,27.643 51.5,23.5 Z M 59.5,43.5 C 71.5046,43.3335 83.5046,43.5001 95.5,44C 103.356,44.8578 108.522,49.0245 111,56.5C 111.667,71.5 111.667,86.5 111,101.5C 109.257,106.91 105.757,110.744 100.5,113C 85.1667,113.667 69.8333,113.667 54.5,113C 49.2425,110.744 45.7425,106.91 44,101.5C 43.3333,86.5 43.3333,71.5 44,56.5C 46.6428,49.014 51.8095,44.6807 59.5,43.5 Z"/></g>
<g><path style="opacity:0.986" fill="#241143" d="M 182.5,23.5 C 200.17,23.3334 217.836,23.5001 235.5,24C 249.737,28.5708 258.904,38.0708 263,52.5C 263.667,70.1667 263.667,87.8333 263,105.5C 257.207,125.778 243.707,135.444 222.5,134.5C 218.167,134.333 213.833,134.167 209.5,134C 201.92,128.147 201.587,121.814 208.5,115C 216.438,113.803 224.438,113.136 232.5,113C 238.164,110.668 241.664,106.501 243,100.5C 243.667,86.1667 243.667,71.8333 243,57.5C 240.928,49.4271 235.761,44.9271 227.5,44C 215.5,43.3333 203.5,43.3333 191.5,44C 184.066,44.7663 178.899,48.5996 176,55.5C 175.667,76.1667 175.333,96.8333 175,117.5C 169.934,126.522 163.6,127.522 156,120.5C 154.866,109.402 154.366,98.2349 154.5,87C 154.399,74.7937 154.899,62.627 156,50.5C 160.351,36.9836 169.184,27.9836 182.5,23.5 Z"/></g>
<g><path style="opacity:0.986" fill="#251144" d="M 53.5,152.5 C 62.1731,152.334 70.8397,152.5 79.5,153C 85.1088,156.277 86.9422,161.11 85,167.5C 83.7494,170.381 81.5827,172.214 78.5,173C 70.8333,173.333 63.1667,173.667 55.5,174C 50.4018,175.433 46.9018,178.6 45,183.5C 43.3815,198.765 43.0481,214.099 44,229.5C 46.1667,235.667 50.3333,239.833 56.5,242C 70.8333,242.667 85.1667,242.667 99.5,242C 106.517,239.648 110.684,234.815 112,227.5C 112.815,208.302 112.648,189.135 111.5,170C 113.646,161.261 118.98,158.261 127.5,161C 128.667,162.167 129.833,163.333 131,164.5C 132.644,186.411 132.978,208.411 132,230.5C 129.619,247.549 120.119,258.382 103.5,263C 86.5,263.667 69.5,263.667 52.5,263C 37.6931,258.86 28.1931,249.36 24,234.5C 23.0513,215.448 23.3847,196.448 25,177.5C 30.3474,164.313 39.8474,155.979 53.5,152.5 Z"/></g>
<g><path style="opacity:0.988" fill="#241143" d="M 185.5,152.5 C 202.889,152.056 220.223,152.556 237.5,154C 250.869,158.7 259.369,167.867 263,181.5C 263.667,199.5 263.667,217.5 263,235.5C 259.167,250 250,259.167 235.5,263C 170.28,276.778 143.447,250.945 155,185.5C 157.819,167.521 167.986,156.521 185.5,152.5 Z M 187.5,173.5 C 202.17,173.333 216.837,173.5 231.5,174C 237.731,175.963 241.564,180.13 243,186.5C 243.667,200.833 243.667,215.167 243,229.5C 240.928,237.573 235.761,242.073 227.5,243C 215.5,243.667 203.5,243.667 191.5,243C 184.066,242.234 178.899,238.4 176,231.5C 175.333,216.167 175.333,200.833 176,185.5C 178.019,179.65 181.852,175.65 187.5,173.5 Z"/></g>
</svg>
