<?xml version="1.0" encoding="UTF-8"?>
<!DOCTYPE svg PUBLIC "-//W3C//DTD SVG 1.1//EN" "http://www.w3.org/Graphics/SVG/1.1/DTD/svg11.dtd">
<svg xmlns="http://www.w3.org/2000/svg" version="1.1" width="128px" height="128px" style="shape-rendering:geometricPrecision; text-rendering:geometricPrecision; image-rendering:optimizeQuality; fill-rule:evenodd; clip-rule:evenodd" xmlns:xlink="http://www.w3.org/1999/xlink">
<g><path style="opacity:0.974" fill="#109200" d="M 100.5,22.5 C 102.655,22.372 104.655,22.872 106.5,24C 110.333,27.8333 114.167,31.6667 118,35.5C 120,38.5 120,41.5 118,44.5C 96.8333,65.6667 75.6667,86.8333 54.5,108C 51.366,108.79 48.366,108.457 45.5,107C 33.3333,94.8333 21.1667,82.6667 9,70.5C 7,67.5 7,64.5 9,61.5C 13.4619,56.1944 18.6286,51.861 24.5,48.5C 26.1966,48.8988 27.8632,49.3988 29.5,50C 36.1667,56.6667 42.8333,63.3333 49.5,70C 50.1667,70.6667 50.8333,70.6667 51.5,70C 67.4246,53.5728 83.7579,37.7395 100.5,22.5 Z"/></g>
</svg>
