<?xml version="1.0" encoding="UTF-8"?>
<!DOCTYPE svg PUBLIC "-//W3C//DTD SVG 1.1//EN" "http://www.w3.org/Graphics/SVG/1.1/DTD/svg11.dtd">
<svg xmlns="http://www.w3.org/2000/svg" version="1.1" width="128px" height="128px" style="shape-rendering:geometricPrecision; text-rendering:geometricPrecision; image-rendering:optimizeQuality; fill-rule:evenodd; clip-rule:evenodd" xmlns:xlink="http://www.w3.org/1999/xlink">
<g><path style="opacity:0.975" fill="#0f1d30" d="M 33.5,25.5 C 36.1873,25.3359 38.854,25.5026 41.5,26C 48.681,33.348 56.0143,40.5146 63.5,47.5C 70.9857,40.5146 78.319,33.348 85.5,26C 88.1667,25.3333 90.8333,25.3333 93.5,26C 97.3333,29.8333 101.167,33.6667 105,37.5C 107,40.5 107,43.5 105,46.5C 97.8333,53.6667 90.6667,60.8333 83.5,68C 91.3645,75.5302 98.8645,83.3635 106,91.5C 106.706,93.9712 106.373,96.3046 105,98.5C 101.167,102.333 97.3333,106.167 93.5,110C 90.8333,110.667 88.1667,110.667 85.5,110C 78.319,102.652 70.9857,95.4854 63.5,88.5C 56.0143,95.4854 48.681,102.652 41.5,110C 38.8333,110.667 36.1667,110.667 33.5,110C 29.6667,106.167 25.8333,102.333 22,98.5C 20,95.5 20,92.5 22,89.5C 29.1667,82.3333 36.3333,75.1667 43.5,68C 36,60.5 28.5,53 21,45.5C 20.245,42.6967 20.5783,40.0301 22,37.5C 26.037,33.631 29.8704,29.631 33.5,25.5 Z"/></g>
</svg>
