<?xml version="1.0" encoding="UTF-8"?>
<!DOCTYPE svg PUBLIC "-//W3C//DTD SVG 1.1//EN" "http://www.w3.org/Graphics/SVG/1.1/DTD/svg11.dtd">
<svg xmlns="http://www.w3.org/2000/svg" version="1.1" width="128px" height="128px" style="shape-rendering:geometricPrecision; text-rendering:geometricPrecision; image-rendering:optimizeQuality; fill-rule:evenodd; clip-rule:evenodd" xmlns:xlink="http://www.w3.org/1999/xlink">
<g><path style="opacity:0.975" fill="#535559" d="M 7.5,3.5 C 44.8348,3.33335 82.1682,3.50001 119.5,4C 120.416,4.37424 121.25,4.87424 122,5.5C 123.149,18.0752 123.649,30.7418 123.5,43.5C 123.333,55.5 123.167,67.5 123,79.5C 121.195,82.1221 121.195,84.7887 123,87.5C 125.167,113.333 113.333,125.167 87.5,123C 69.6253,115.58 63.6253,102.58 69.5,84C 48.8333,83.6667 28.1667,83.3333 7.5,83C 6.58377,82.6258 5.75044,82.1258 5,81.5C 3.35309,56.9209 3.01976,32.2542 4,7.5C 4.68972,5.64977 5.85639,4.31643 7.5,3.5 Z M 11.5,11.5 C 46.1667,11.5 80.8333,11.5 115.5,11.5C 115.667,32.5026 115.5,53.5026 115,74.5C 105.89,67.4092 95.7233,65.5758 84.5,69C 81.228,70.6078 78.228,72.6078 75.5,75C 54.1693,75.5 32.8359,75.6666 11.5,75.5C 11.5,54.1667 11.5,32.8333 11.5,11.5 Z M 27.5,27.5 C 32.8333,27.5 38.1667,27.5 43.5,27.5C 43.5,32.8333 43.5,38.1667 43.5,43.5C 38.1667,43.5 32.8333,43.5 27.5,43.5C 27.5,38.1667 27.5,32.8333 27.5,27.5 Z M 89.5,76.5 C 107.648,75.1477 115.815,83.481 114,101.5C 107.178,115.042 97.0111,118.209 83.5,111C 75.1947,102.171 74.3614,92.6707 81,82.5C 83.6371,80.109 86.4704,78.109 89.5,76.5 Z"/></g>
<g><path style="opacity:0.981" fill="#545659" d="M 23.5,19.5 C 31.5069,19.3336 39.5069,19.5003 47.5,20C 48.4162,20.3742 49.2496,20.8742 50,21.5C 51.1094,26.0555 51.6094,30.7222 51.5,35.5C 54.5,49.1667 49.1667,54.5 35.5,51.5C 31.5,51.3333 27.5,51.1667 23.5,51C 22.5838,50.6258 21.7504,50.1258 21,49.5C 19.3933,40.9362 19.06,32.2695 20,23.5C 20.6897,21.6498 21.8564,20.3164 23.5,19.5 Z M 27.5,27.5 C 27.5,32.8333 27.5,38.1667 27.5,43.5C 32.8333,43.5 38.1667,43.5 43.5,43.5C 43.5,38.1667 43.5,32.8333 43.5,27.5C 38.1667,27.5 32.8333,27.5 27.5,27.5 Z"/></g>
<g><path style="opacity:0.939" fill="#54555a" d="M 60.5,31.5 C 66.5092,31.3338 72.5092,31.5005 78.5,32C 79.5914,34.0639 79.7581,36.2305 79,38.5C 72.9156,39.642 66.7489,39.8087 60.5,39C 59.2215,36.5024 59.2215,34.0024 60.5,31.5 Z"/></g>
<g><path style="opacity:0.939" fill="#54555a" d="M 88.5,31.5 C 94.5092,31.3338 100.509,31.5005 106.5,32C 107.591,34.0639 107.758,36.2305 107,38.5C 100.916,39.642 94.7489,39.8087 88.5,39C 87.2215,36.5024 87.2215,34.0024 88.5,31.5 Z"/></g>
<g><path style="opacity:0.975" fill="#54555a" d="M 20.5,59.5 C 35.837,59.3334 51.1703,59.5001 66.5,60C 67.8333,62.3333 67.8333,64.6667 66.5,67C 51.1667,67.6667 35.8333,67.6667 20.5,67C 19.2215,64.5024 19.2215,62.0024 20.5,59.5 Z"/></g>
<g><path style="opacity:0.95" fill="#54565a" d="M 94.5,82.5 C 99.83,83.6529 101.163,86.4862 98.5,91C 101.167,91.3333 103.833,91.6667 106.5,92C 107.833,94.3333 107.833,96.6667 106.5,99C 103.833,99.3333 101.167,99.6667 98.5,100C 101.167,106.333 99.1667,108.667 92.5,107C 88.6068,103.61 85.2735,99.7767 82.5,95.5C 85.8426,90.4934 89.8426,86.1601 94.5,82.5 Z"/></g>
</svg>
