<?xml version="1.0" encoding="UTF-8"?>
<!DOCTYPE svg PUBLIC "-//W3C//DTD SVG 1.1//EN" "http://www.w3.org/Graphics/SVG/1.1/DTD/svg11.dtd">
<svg xmlns="http://www.w3.org/2000/svg" version="1.1" width="128px" height="128px" style="shape-rendering:geometricPrecision; text-rendering:geometricPrecision; image-rendering:optimizeQuality; fill-rule:evenodd; clip-rule:evenodd" xmlns:xlink="http://www.w3.org/1999/xlink">
<g><path style="opacity:0.996" fill="#49445d" d="M 23.5,3.5 C 50.1687,3.33336 76.8354,3.50003 103.5,4C 113.333,7.16667 119.833,13.6667 123,23.5C 123.667,50.1667 123.667,76.8333 123,103.5C 119.833,113.333 113.333,119.833 103.5,123C 76.8333,123.667 50.1667,123.667 23.5,123C 13.6667,119.833 7.16667,113.333 4,103.5C 3.33333,76.8333 3.33333,50.1667 4,23.5C 7.3514,13.6498 13.8514,6.98314 23.5,3.5 Z M 41.5,40.5 C 42.8734,40.3433 44.2068,40.51 45.5,41C 51.3479,47.0149 57.3479,52.8482 63.5,58.5C 69.6521,52.8482 75.6521,47.0149 81.5,41C 85.6667,39.8333 87.1667,41.3333 86,45.5C 79.9851,51.3479 74.1518,57.3479 68.5,63.5C 74.1518,69.6521 79.9851,75.6521 86,81.5C 87.1667,85.6667 85.6667,87.1667 81.5,86C 75.6521,79.9851 69.6521,74.1518 63.5,68.5C 57.3479,74.1518 51.3479,79.9851 45.5,86C 41.3333,87.1667 39.8333,85.6667 41,81.5C 47.0149,75.6521 52.8482,69.6521 58.5,63.5C 52.8482,57.3479 47.0149,51.3479 41,45.5C 40.3603,43.735 40.5269,42.0683 41.5,40.5 Z"/></g>
</svg>
