<?xml version="1.0" encoding="UTF-8"?>
<!DOCTYPE svg PUBLIC "-//W3C//DTD SVG 1.1//EN" "http://www.w3.org/Graphics/SVG/1.1/DTD/svg11.dtd">
<svg xmlns="http://www.w3.org/2000/svg" version="1.1" width="128px" height="128px" style="shape-rendering:geometricPrecision; text-rendering:geometricPrecision; image-rendering:optimizeQuality; fill-rule:evenodd; clip-rule:evenodd" xmlns:xlink="http://www.w3.org/1999/xlink">
<g><path style="opacity:0.969" fill="#0f1d30" d="M 57.5,-0.5 C 62.1667,-0.5 66.8333,-0.5 71.5,-0.5C 71.3342,4.17853 71.5008,8.8452 72,13.5C 80.2029,14.935 87.5362,18.2683 94,23.5C 94.6667,25.1667 94.6667,26.8333 94,28.5C 92.0797,31.3388 90.4131,34.3388 89,37.5C 88.1074,38.0814 87.1074,38.4148 86,38.5C 80.6361,35.0723 74.8027,32.5723 68.5,31C 60.9957,29.8281 55.1624,32.3281 51,38.5C 50.0472,43.5773 51.8806,47.4107 56.5,50C 62.7181,52.9425 69.0515,55.6091 75.5,58C 96.7839,66.5189 102.284,81.0189 92,101.5C 86.7166,107.808 80.05,111.808 72,113.5C 71.5008,118.155 71.3342,122.821 71.5,127.5C 66.8333,127.5 62.1667,127.5 57.5,127.5C 56.7227,122.916 56.2227,118.25 56,113.5C 46.8765,111.688 38.7099,107.855 31.5,102C 30.5697,100.806 29.9031,99.4728 29.5,98C 31.7653,94.064 34.432,90.3973 37.5,87C 39.1667,86.3333 40.8333,86.3333 42.5,87C 51.9893,96.0463 62.656,98.0463 74.5,93C 80.2252,86.849 79.5585,81.5156 72.5,77C 62.2951,72.7125 52.2951,68.0459 42.5,63C 31.452,53.9754 28.6187,42.8088 34,29.5C 39.2746,21.1159 46.7746,16.1159 56.5,14.5C 56.2213,9.40533 56.5546,4.40533 57.5,-0.5 Z"/></g>
</svg>
