<?xml version="1.0" encoding="UTF-8"?>
<!DOCTYPE svg PUBLIC "-//W3C//DTD SVG 1.1//EN" "http://www.w3.org/Graphics/SVG/1.1/DTD/svg11.dtd">
<svg xmlns="http://www.w3.org/2000/svg" version="1.1" width="128px" height="128px" style="shape-rendering:geometricPrecision; text-rendering:geometricPrecision; image-rendering:optimizeQuality; fill-rule:evenodd; clip-rule:evenodd" xmlns:xlink="http://www.w3.org/1999/xlink">
<g><path style="opacity:0.926" fill="#535659" d="M 48.5,7.5 C 55.0653,6.42195 57.232,9.08862 55,15.5C 53.135,22.9278 50.9683,30.2612 48.5,37.5C 50.483,39.9837 52.6496,42.3171 55,44.5C 55.6667,46.5 55.6667,48.5 55,50.5C 45.5,60 36,69.5 26.5,79C 19.9229,80.5906 17.7562,78.0906 20,71.5C 21.865,64.0722 24.0317,56.7388 26.5,49.5C 24.517,47.0163 22.3504,44.6829 20,42.5C 19.3333,40.5 19.3333,38.5 20,36.5C 29.7022,26.965 39.2022,17.2984 48.5,7.5 Z M 41.5,28.5 C 40.0225,33.0714 39.5225,37.7381 40,42.5C 41.6851,44.0175 43.1851,45.6841 44.5,47.5C 41.1456,51.521 37.479,55.1877 33.5,58.5C 34.9775,53.9286 35.4775,49.2619 35,44.5C 33.3149,42.9825 31.8149,41.3159 30.5,39.5C 33.8544,35.479 37.521,31.8123 41.5,28.5 Z"/></g>
<g><path style="opacity:0.967" fill="#535559" d="M 4.5,23.5 C 9.42998,23.1975 14.2633,23.5308 19,24.5C 20.6071,30.9177 18.1071,33.251 11.5,31.5C 11.5,54.1667 11.5,76.8333 11.5,99.5C 12.9778,99.762 14.3112,99.4287 15.5,98.5C 21.2556,87.2201 29.9223,84.3868 41.5,90C 48.0693,96.9446 49.2359,104.778 45,113.5C 43.0616,116.106 40.5616,117.939 37.5,119C 26.2569,119.82 15.0902,119.653 4,118.5C 3.2419,116.231 3.40857,114.064 4.5,112C 8.54078,111.827 12.5408,111.327 16.5,110.5C 16.1667,109.833 15.8333,109.167 15.5,108.5C 11.6229,107.803 7.78959,107.136 4,106.5C 3.17608,78.7613 3.34275,51.0947 4.5,23.5 Z M 28.5,96.5 C 37.8504,96.3654 40.517,100.532 36.5,109C 27.9562,112.322 24.1229,109.489 25,100.5C 25.6897,98.6498 26.8564,97.3164 28.5,96.5 Z"/></g>
<g><path style="opacity:0.963" fill="#53555a" d="M 56.5,23.5 C 61.43,23.1975 66.2633,23.5308 71,24.5C 71.4993,29.4889 71.6659,34.4889 71.5,39.5C 77.8421,39.3338 84.1754,39.5005 90.5,40C 98.0451,50.2563 105.712,60.4229 113.5,70.5C 116.937,71.6361 119.771,73.6361 122,76.5C 123.615,86.4002 123.949,96.4002 123,106.5C 119.591,107.622 116.091,107.789 112.5,107C 111.409,104.936 111.242,102.769 112,100.5C 113.011,99.6634 114.178,99.33 115.5,99.5C 115.91,93.3792 115.41,87.3792 114,81.5C 111.538,80.3502 109.204,79.0169 107,77.5C 100.026,67.6924 92.8594,58.0258 85.5,48.5C 80.8804,47.5067 76.2137,47.1734 71.5,47.5C 71.6666,63.1702 71.4999,78.8369 71,94.5C 68.6667,95.8333 66.3333,95.8333 64,94.5C 63.5,73.5026 63.3334,52.5026 63.5,31.5C 56.0817,33.0873 53.7484,30.4206 56.5,23.5 Z"/></g>
<g><path style="opacity:0.937" fill="#54555a" d="M 76.5,55.5 C 79.3646,55.0548 81.8646,55.7215 84,57.5C 87.6667,62.5 91.3333,67.5 95,72.5C 95.7581,74.7695 95.5914,76.9361 94.5,79C 88.2511,79.8087 82.0844,79.642 76,78.5C 74.187,72.6431 76.3536,70.1431 82.5,71C 80.3333,68.1667 78.1667,65.3333 76,62.5C 75.2967,60.0709 75.4634,57.7375 76.5,55.5 Z"/></g>
<g><path style="opacity:0.951" fill="#535559" d="M 85.5,87.5 C 101.985,85.8174 109.151,93.1508 107,109.5C 105.167,114 102,117.167 97.5,119C 87.8333,119.667 78.1667,119.667 68.5,119C 67.4086,116.936 67.2419,114.769 68,112.5C 70.8003,111.875 73.6336,111.208 76.5,110.5C 76.1667,109.833 75.8333,109.167 75.5,108.5C 67.6091,107.819 59.7758,107.152 52,106.5C 51.2419,104.231 51.4086,102.064 52.5,100C 60.1883,99.8315 67.8549,99.3315 75.5,98.5C 77.4935,93.5112 80.8269,89.8445 85.5,87.5 Z M 88.5,96.5 C 97.8504,96.3654 100.517,100.532 96.5,109C 87.9562,112.322 84.1229,109.489 85,100.5C 85.6897,98.6498 86.8564,97.3164 88.5,96.5 Z"/></g>
<g><path style="opacity:0.906" fill="#54555a" d="M 52.5,111.5 C 55.8499,111.335 59.1832,111.502 62.5,112C 63.5914,114.064 63.7581,116.231 63,118.5C 59.5915,119.622 56.0915,119.789 52.5,119C 51.2215,116.502 51.2215,114.002 52.5,111.5 Z"/></g>
</svg>
