<?xml version="1.0" encoding="UTF-8"?>
<!DOCTYPE svg PUBLIC "-//W3C//DTD SVG 1.1//EN" "http://www.w3.org/Graphics/SVG/1.1/DTD/svg11.dtd">
<svg xmlns="http://www.w3.org/2000/svg" version="1.1" width="128px" height="128px" style="shape-rendering:geometricPrecision; text-rendering:geometricPrecision; image-rendering:optimizeQuality; fill-rule:evenodd; clip-rule:evenodd" xmlns:xlink="http://www.w3.org/1999/xlink">
<g><path style="opacity:0.98" fill="#a93597" d="M 44.5,-0.5 C 63.8333,-0.5 83.1667,-0.5 102.5,-0.5C 104.599,0.611848 106.933,1.27852 109.5,1.5C 110.167,2.16667 110.833,2.83333 111.5,3.5C 85.9087,-0.969915 60.9087,1.86342 36.5,12C 34.1009,12.711 31.7676,12.5443 29.5,11.5C 22.9443,14.9449 16.2777,18.1116 9.5,21C 6.57667,23.0455 3.74333,25.2121 1,27.5C 0.517215,26.552 0.350549,25.552 0.5,24.5C 0.5,23.1667 0.5,21.8333 0.5,20.5C 1.16667,19.5 1.83333,18.5 2.5,17.5C 2.35055,18.552 2.51722,19.552 3,20.5C 4.83333,18 7,15.8333 9.5,14C 15.6553,11.7243 21.6553,9.05764 27.5,6C 33.8878,4.48656 40.2211,2.8199 46.5,1C 45.5842,0.721579 44.9175,0.221579 44.5,-0.5 Z"/></g>
<g><path style="opacity:0.012" fill="#ae3395" d="M 109.5,1.5 C 109.897,0.474981 110.563,0.308314 111.5,1C 110.906,1.46434 110.239,1.63101 109.5,1.5 Z"/></g>
<g><path style="opacity:0.012" fill="#9438a3" d="M 13.5,1.5 C 14.8333,2.16667 14.8333,2.16667 13.5,1.5 Z"/></g>
<g><path style="opacity:0.999" fill="#b03592" d="M 111.5,3.5 C 115.02,4.35276 117.687,6.35276 119.5,9.5C 119.565,9.93822 119.399,10.2716 119,10.5C 108.885,7.72101 98.552,6.05434 88,5.5C 70.9654,6.74001 54.4654,10.0733 38.5,15.5C 37.9032,14.8614 37.0698,14.528 36,14.5C 32.1088,15.4636 28.2755,16.6303 24.5,18C 17.2074,21.8674 9.87403,25.534 2.5,29C 1.77338,30.3988 1.27338,31.8988 1,33.5C 0.721579,32.5842 0.221579,31.9175 -0.5,31.5C -0.5,29.1667 -0.5,26.8333 -0.5,24.5C -0.166667,24.5 0.166667,24.5 0.5,24.5C 0.350549,25.552 0.517215,26.552 1,27.5C 3.74333,25.2121 6.57667,23.0455 9.5,21C 16.2777,18.1116 22.9443,14.9449 29.5,11.5C 31.7676,12.5443 34.1009,12.711 36.5,12C 60.9087,1.86342 85.9087,-0.969915 111.5,3.5 Z"/></g>
<g><path style="opacity:0.012" fill="#af3393" d="M 112.5,1.5 C 113.833,2.16667 113.833,2.16667 112.5,1.5 Z"/></g>
<g><path style="opacity:0.996" fill="#9b38a0" d="M 24.5,-0.5 C 31.1667,-0.5 37.8333,-0.5 44.5,-0.5C 44.9175,0.221579 45.5842,0.721579 46.5,1C 40.2211,2.8199 33.8878,4.48656 27.5,6C 21.6553,9.05764 15.6553,11.7243 9.5,14C 7,15.8333 4.83333,18 3,20.5C 2.51722,19.552 2.35055,18.552 2.5,17.5C 2.83333,16.1667 3.16667,14.8333 3.5,13.5C 8.68308,6.07731 15.6831,1.41064 24.5,-0.5 Z"/></g>
<g><path style="opacity:0.986" fill="#bc318c" d="M 119.5,9.5 C 121.194,10.5274 122.527,11.8608 123.5,13.5C 124.455,15.7457 125.122,18.079 125.5,20.5C 124.778,20.0825 124.278,19.4158 124,18.5C 123.667,19.1667 123.333,19.8333 123,20.5C 116.121,17.6561 108.955,15.8228 101.5,15C 82.663,14.8012 63.9964,15.3012 45.5,16.5C 42.8333,16.5 40.1667,16.5 37.5,16.5C 37.5,15.8333 37.8333,15.5 38.5,15.5C 54.4654,10.0733 70.9654,6.74001 88,5.5C 98.552,6.05434 108.885,7.72101 119,10.5C 119.399,10.2716 119.565,9.93822 119.5,9.5 Z"/></g>
<g><path style="opacity:0.006" fill="#b73290" d="M 124.5,13.5 C 124.167,13.5 123.833,13.5 123.5,13.5C 123.833,10.8333 124.167,10.8333 124.5,13.5 Z"/></g>
<g><path style="opacity:0.008" fill="#9239a4" d="M 3.5,13.5 C 3.16667,13.5 2.83333,13.5 2.5,13.5C 2.83333,10.8333 3.16667,10.8333 3.5,13.5 Z"/></g>
<g><path style="opacity:0.012" fill="#993a9f" d="M 2.5,13.5 C 1.83333,14.1667 1.83333,14.1667 2.5,13.5 Z"/></g>
<g><path style="opacity:0.012" fill="#b9328e" d="M 124.5,13.5 C 125.833,14.1667 125.833,14.1667 124.5,13.5 Z"/></g>
<g><path style="opacity:1" fill="#b23f8d" d="M 38.5,15.5 C 37.8333,15.5 37.5,15.8333 37.5,16.5C 32.7871,18.0247 28.4538,20.3581 24.5,23.5C 21.3429,23.0785 19.0095,24.2452 17.5,27C 14.624,27.4379 11.9573,28.4379 9.5,30C 6.28038,32.4367 2.94704,34.6033 -0.5,36.5C -0.5,34.8333 -0.5,33.1667 -0.5,31.5C 0.221579,31.9175 0.721579,32.5842 1,33.5C 1.27338,31.8988 1.77338,30.3988 2.5,29C 9.87403,25.534 17.2074,21.8674 24.5,18C 28.2755,16.6303 32.1088,15.4636 36,14.5C 37.0698,14.528 37.9032,14.8614 38.5,15.5 Z"/></g>
<g><path style="opacity:0.999" fill="#c8398b" d="M 125.5,20.5 C 125.833,20.5 126.167,20.5 126.5,20.5C 126.232,22.099 126.566,23.4324 127.5,24.5C 127.5,26.5 127.5,28.5 127.5,30.5C 126.732,29.7375 126.232,28.7375 126,27.5C 125.667,28.1667 125.333,28.8333 125,29.5C 119.126,27.0974 113.126,25.0974 107,23.5C 106.005,24.0659 105.172,24.7326 104.5,25.5C 100.2,20.8482 94.8662,18.0149 88.5,17C 74.1705,16.5001 59.8372,16.3334 45.5,16.5C 63.9964,15.3012 82.663,14.8012 101.5,15C 108.955,15.8228 116.121,17.6561 123,20.5C 123.333,19.8333 123.667,19.1667 124,18.5C 124.278,19.4158 124.778,20.0825 125.5,20.5 Z"/></g>
<g><path style="opacity:1" fill="#fdf9f9" d="M 37.5,16.5 C 40.1667,16.5 42.8333,16.5 45.5,16.5C 59.8372,16.3334 74.1705,16.5001 88.5,17C 94.8662,18.0149 100.2,20.8482 104.5,25.5C 110.868,35.1864 113.201,45.853 111.5,57.5C 111.5,59.8333 111.5,62.1667 111.5,64.5C 111.909,74.2648 111.242,83.9315 109.5,93.5C 107.965,97.0527 105.965,100.386 103.5,103.5C 99.7603,106.367 95.7603,108.7 91.5,110.5C 89.5853,110.216 87.9187,110.549 86.5,111.5C 81.5,111.5 76.5,111.5 71.5,111.5C 66.1667,111.5 60.8333,111.5 55.5,111.5C 50.1667,111.5 44.8333,111.5 39.5,111.5C 30.8975,109.559 24.2308,104.892 19.5,97.5C 17.7087,92.6666 16.7087,87.6666 16.5,82.5C 16.5,70.1667 16.5,57.8333 16.5,45.5C 16.5,43.5 16.5,41.5 16.5,39.5C 16.767,37.0347 17.4336,34.7014 18.5,32.5C 19.7559,28.9837 21.7559,25.9837 24.5,23.5C 28.4538,20.3581 32.7871,18.0247 37.5,16.5 Z"/></g>
<g><path style="opacity:0.007" fill="#bf308b" d="M 127.5,17.5 C 127.5,18.5 127.5,19.5 127.5,20.5C 127.167,20.5 126.833,20.5 126.5,20.5C 126.263,19.209 126.596,18.209 127.5,17.5 Z"/></g>
<g><path style="opacity:0.012" fill="#99399f" d="M -0.5,17.5 C 0.403972,18.209 0.737305,19.209 0.5,20.5C 0.166667,20.5 -0.166667,20.5 -0.5,20.5C -0.5,19.5 -0.5,18.5 -0.5,17.5 Z"/></g>
<g><path style="opacity:1" fill="#b74385" d="M 24.5,23.5 C 21.7559,25.9837 19.7559,28.9837 18.5,32.5C 11.3729,35.6194 5.03952,39.9527 -0.5,45.5C -0.5,42.5 -0.5,39.5 -0.5,36.5C 2.94704,34.6033 6.28038,32.4367 9.5,30C 11.9573,28.4379 14.624,27.4379 17.5,27C 19.0095,24.2452 21.3429,23.0785 24.5,23.5 Z"/></g>
<g><path style="opacity:1" fill="#d24b7f" d="M 85.5,25.5 C 77.4931,25.3336 69.4931,25.5003 61.5,26C 64.5,26.3333 67.5,26.6667 70.5,27C 69.5842,27.2784 68.9175,27.7784 68.5,28.5C 64.1619,27.3284 59.8285,27.4951 55.5,29C 54.944,29.3826 54.6107,29.8826 54.5,30.5C 50.5,31.1667 46.5,31.8333 42.5,32.5C 39.1651,33.3388 35.8318,33.8388 32.5,34C 33.1667,33.6667 33.8333,33.3333 34.5,33C 32.2755,32.9605 30.2755,32.7938 28.5,32.5C 31.3329,28.2444 35.3329,25.7444 40.5,25C 55.6723,24.1723 70.6723,24.3389 85.5,25.5 Z"/></g>
<g><path style="opacity:1" fill="#d8347d" d="M 85.5,25.5 C 93.7761,26.2729 99.2761,30.6063 102,38.5C 102.5,45.4921 102.666,52.4921 102.5,59.5C 101.683,57.0314 101.183,54.3647 101,51.5C 98.4735,48.3984 95.9735,45.3984 93.5,42.5C 95.8923,35.7347 93.559,32.568 86.5,33C 85.9558,33.7172 85.2891,34.2172 84.5,34.5C 80.2298,29.9617 74.8965,27.9617 68.5,28.5C 68.9175,27.7784 69.5842,27.2784 70.5,27C 67.5,26.6667 64.5,26.3333 61.5,26C 69.4931,25.5003 77.4931,25.3336 85.5,25.5 Z"/></g>
<g><path style="opacity:0.995" fill="#d72d7e" d="M 127.5,30.5 C 127.5,48.8333 127.5,67.1667 127.5,85.5C 124.603,77.6956 121.103,70.0289 117,62.5C 115.945,59.9441 114.112,58.2775 111.5,57.5C 113.201,45.853 110.868,35.1864 104.5,25.5C 105.172,24.7326 106.005,24.0659 107,23.5C 113.126,25.0974 119.126,27.0974 125,29.5C 125.333,28.8333 125.667,28.1667 126,27.5C 126.232,28.7375 126.732,29.7375 127.5,30.5 Z"/></g>
<g><path style="opacity:1" fill="#dd406e" d="M 54.5,30.5 C 59.5805,30.2497 64.5805,30.7497 69.5,32C 76.6275,37.4586 83.4608,43.2919 90,49.5C 94.0304,55.0196 98.197,60.3529 102.5,65.5C 102.825,73.0191 102.492,80.3524 101.5,87.5C 101.666,83.4862 101.499,79.4862 101,75.5C 100.667,76.5 100.333,77.5 100,78.5C 97.2802,71.0178 93.1136,64.6845 87.5,59.5C 84.662,46.7354 76.662,40.0687 63.5,39.5C 59.1611,39.2822 55.1611,40.2822 51.5,42.5C 51.27,39.5352 49.6034,38.2019 46.5,38.5C 42.8204,39.1695 39.1537,39.8362 35.5,40.5C 38.7954,38.1855 42.462,36.3522 46.5,35C 44.6803,34.7996 43.347,33.9663 42.5,32.5C 46.5,31.8333 50.5,31.1667 54.5,30.5 Z"/></g>
<g><path style="opacity:1" fill="#db3873" d="M 68.5,28.5 C 74.8965,27.9617 80.2298,29.9617 84.5,34.5C 82.5411,42.8772 85.5411,45.5439 93.5,42.5C 95.9735,45.3984 98.4735,48.3984 101,51.5C 101.183,54.3647 101.683,57.0314 102.5,59.5C 102.5,61.5 102.5,63.5 102.5,65.5C 98.197,60.3529 94.0304,55.0196 90,49.5C 83.4608,43.2919 76.6275,37.4586 69.5,32C 64.5805,30.7497 59.5805,30.2497 54.5,30.5C 54.6107,29.8826 54.944,29.3826 55.5,29C 59.8285,27.4951 64.1619,27.3284 68.5,28.5 Z"/></g>
<g><path style="opacity:1" fill="#fcf2f6" d="M 93.5,42.5 C 85.5411,45.5439 82.5411,42.8772 84.5,34.5C 85.2891,34.2172 85.9558,33.7172 86.5,33C 93.559,32.568 95.8923,35.7347 93.5,42.5 Z"/></g>
<g><path style="opacity:0.998" fill="#bf477a" d="M 18.5,32.5 C 17.4336,34.7014 16.767,37.0347 16.5,39.5C 10.5326,42.4724 4.86589,45.8058 -0.5,49.5C -0.5,48.1667 -0.5,46.8333 -0.5,45.5C 5.03952,39.9527 11.3729,35.6194 18.5,32.5 Z"/></g>
<g><path style="opacity:1" fill="#d54a6a" d="M 28.5,32.5 C 30.2755,32.7938 32.2755,32.9605 34.5,33C 33.8333,33.3333 33.1667,33.6667 32.5,34C 35.8318,33.8388 39.1651,33.3388 42.5,32.5C 43.347,33.9663 44.6803,34.7996 46.5,35C 42.462,36.3522 38.7954,38.1855 35.5,40.5C 31.8988,41.6339 28.5655,43.3006 25.5,45.5C 25.5,43.8333 25.5,42.1667 25.5,40.5C 25.4152,37.3511 26.4152,34.6845 28.5,32.5 Z"/></g>
<g><path style="opacity:1" fill="#fef8f8" d="M 87.5,59.5 C 87.9308,65.0228 87.2641,70.3561 85.5,75.5C 82.5,79.1667 79.1667,82.5 75.5,85.5C 72.8427,85.9348 70.5093,86.9348 68.5,88.5C 65.1667,88.5 61.8333,88.5 58.5,88.5C 47.8747,84.8746 41.5413,77.5412 39.5,66.5C 38.9303,60.8236 39.9303,55.4903 42.5,50.5C 44.8537,47.1485 47.8537,44.4819 51.5,42.5C 55.1611,40.2822 59.1611,39.2822 63.5,39.5C 76.662,40.0687 84.662,46.7354 87.5,59.5 Z"/></g>
<g><path style="opacity:1" fill="#cb506d" d="M 16.5,39.5 C 16.5,41.5 16.5,43.5 16.5,45.5C 15.5386,47.2646 15.2053,49.2646 15.5,51.5C 13.6916,51.4914 12.0249,51.9914 10.5,53C 6.6662,56.0024 2.99953,59.1691 -0.5,62.5C -0.5,58.1667 -0.5,53.8333 -0.5,49.5C 4.86589,45.8058 10.5326,42.4724 16.5,39.5 Z"/></g>
<g><path style="opacity:1" fill="#e2515d" d="M 51.5,42.5 C 47.8537,44.4819 44.8537,47.1485 42.5,50.5C 42.5654,50.0618 42.3988,49.7284 42,49.5C 41.6667,50.1667 41.3333,50.8333 41,51.5C 38.4572,49.8952 35.7905,48.5619 33,47.5C 30.6129,48.9129 28.2796,49.5796 26,49.5C 25.51,48.2068 25.3433,46.8734 25.5,45.5C 28.5655,43.3006 31.8988,41.6339 35.5,40.5C 39.1537,39.8362 42.8204,39.1695 46.5,38.5C 49.6034,38.2019 51.27,39.5352 51.5,42.5 Z"/></g>
<g><path style="opacity:1" fill="#e34f5f" d="M 75.5,73.5 C 69.0722,65.4053 61.4055,58.7387 52.5,53.5C 54.9868,49.4257 58.6534,47.7591 63.5,48.5C 75.5934,49.6547 80.7601,56.3213 79,68.5C 78.3028,70.5844 77.1361,72.2511 75.5,73.5 Z"/></g>
<g><path style="opacity:1" fill="#e96656" d="M 25.5,40.5 C 25.5,42.1667 25.5,43.8333 25.5,45.5C 25.3433,46.8734 25.51,48.2068 26,49.5C 28.2796,49.5796 30.6129,48.9129 33,47.5C 35.7905,48.5619 38.4572,49.8952 41,51.5C 41.3333,50.8333 41.6667,50.1667 42,49.5C 42.3988,49.7284 42.5654,50.0618 42.5,50.5C 39.9303,55.4903 38.9303,60.8236 39.5,66.5C 35.1667,65.1667 30.8333,63.8333 26.5,62.5C 26.6621,60.4727 26.4955,58.4727 26,56.5C 25.5008,61.1548 25.3342,65.8215 25.5,70.5C 25.5,75.5 25.5,80.5 25.5,85.5C 24.1667,70.5 24.1667,55.5 25.5,40.5 Z"/></g>
<g><path style="opacity:1" fill="#e65858" d="M 52.5,53.5 C 61.4055,58.7387 69.0722,65.4053 75.5,73.5C 70.9836,79.2447 65.317,80.9114 58.5,78.5C 60.288,78.7852 61.9547,78.4519 63.5,77.5C 58.7954,71.6361 53.962,65.9695 49,60.5C 48.5045,62.4727 48.3379,64.4727 48.5,66.5C 46.593,61.2823 47.9263,56.949 52.5,53.5 Z"/></g>
<g><path style="opacity:1" fill="#df6960" d="M 16.5,45.5 C 16.5,57.8333 16.5,70.1667 16.5,82.5C 16.1667,82.5 15.8333,82.5 15.5,82.5C 15.5,76.8333 15.5,71.1667 15.5,65.5C 15.665,62.1501 15.4983,58.8168 15,55.5C 11.6702,62.6624 6.50353,67.9957 -0.5,71.5C -0.5,68.5 -0.5,65.5 -0.5,62.5C 2.99953,59.1691 6.6662,56.0024 10.5,53C 12.0249,51.9914 13.6916,51.4914 15.5,51.5C 15.2053,49.2646 15.5386,47.2646 16.5,45.5 Z"/></g>
<g><path style="opacity:0.972" fill="#d93178" d="M 111.5,57.5 C 114.112,58.2775 115.945,59.9441 117,62.5C 121.103,70.0289 124.603,77.6956 127.5,85.5C 127.5,91.1667 127.5,96.8333 127.5,102.5C 126.566,103.568 126.232,104.901 126.5,106.5C 125.833,106.5 125.5,106.833 125.5,107.5C 122.027,92.7477 117.36,78.4143 111.5,64.5C 111.5,62.1667 111.5,59.8333 111.5,57.5 Z"/></g>
<g><path style="opacity:1" fill="#e85d50" d="M 58.5,78.5 C 52.6433,76.6402 49.3099,72.6402 48.5,66.5C 48.3379,64.4727 48.5045,62.4727 49,60.5C 53.962,65.9695 58.7954,71.6361 63.5,77.5C 61.9547,78.4519 60.288,78.7852 58.5,78.5 Z"/></g>
<g><path style="opacity:1" fill="#ee6f3d" d="M 25.5,70.5 C 26.3164,72.1436 27.6498,73.3103 29.5,74C 28.8333,74.3333 28.1667,74.6667 27.5,75C 40.622,80.6245 50.2887,89.7911 56.5,102.5C 53.5,102.5 50.5,102.5 47.5,102.5C 41.2051,96.0482 34.3718,90.0482 27,84.5C 26.7216,85.4158 26.2216,86.0825 25.5,86.5C 25.5,86.1667 25.5,85.8333 25.5,85.5C 25.5,80.5 25.5,75.5 25.5,70.5 Z"/></g>
<g><path style="opacity:0.99" fill="#e56749" d="M 15.5,65.5 C 9.83887,70.1615 4.50554,75.1615 -0.5,80.5C -0.5,77.5 -0.5,74.5 -0.5,71.5C 6.50353,67.9957 11.6702,62.6624 15,55.5C 15.4983,58.8168 15.665,62.1501 15.5,65.5 Z"/></g>
<g><path style="opacity:1" fill="#ee713b" d="M 15.5,65.5 C 15.5,71.1667 15.5,76.8333 15.5,82.5C 15.5408,86.2434 14.8741,86.4101 13.5,83C 10.5,82.3333 7.5,82.3333 4.5,83C 2.96252,84.7073 1.29585,86.2073 -0.5,87.5C -0.5,85.1667 -0.5,82.8333 -0.5,80.5C 4.50554,75.1615 9.83887,70.1615 15.5,65.5 Z"/></g>
<g><path style="opacity:0.957" fill="#db3872" d="M 111.5,64.5 C 117.36,78.4143 122.027,92.7477 125.5,107.5C 125.5,108.167 125.5,108.833 125.5,109.5C 124.662,109.842 124.328,110.508 124.5,111.5C 123.662,111.842 123.328,112.508 123.5,113.5C 122.662,113.842 122.328,114.508 122.5,115.5C 121.833,115.5 121.5,115.833 121.5,116.5C 120.833,116.5 120.5,116.833 120.5,117.5C 119.167,118.167 118.167,119.167 117.5,120.5C 116.833,120.5 116.5,120.833 116.5,121.5C 115.833,121.5 115.5,121.833 115.5,122.5C 115.167,122.5 114.833,122.5 114.5,122.5C 113.572,112.594 111.905,102.928 109.5,93.5C 111.242,83.9315 111.909,74.2648 111.5,64.5 Z"/></g>
<g><path style="opacity:1" fill="#e04967" d="M 87.5,59.5 C 93.1136,64.6845 97.2802,71.0178 100,78.5C 100.333,77.5 100.667,76.5 101,75.5C 101.499,79.4862 101.666,83.4862 101.5,87.5C 101.341,91.6744 99.6747,95.0078 96.5,97.5C 93.8356,89.5044 90.169,82.1711 85.5,75.5C 87.2641,70.3561 87.9308,65.0228 87.5,59.5 Z"/></g>
<g><path style="opacity:1" fill="#ec6944" d="M 39.5,66.5 C 41.5413,77.5412 47.8747,84.8746 58.5,88.5C 59.5676,89.4345 60.901,89.7678 62.5,89.5C 63.4691,93.608 65.1358,97.4414 67.5,101C 66.5842,101.278 65.9175,101.778 65.5,102.5C 62.5,102.5 59.5,102.5 56.5,102.5C 50.2887,89.7911 40.622,80.6245 27.5,75C 28.1667,74.6667 28.8333,74.3333 29.5,74C 27.6498,73.3103 26.3164,72.1436 25.5,70.5C 25.3342,65.8215 25.5008,61.1548 26,56.5C 26.4955,58.4727 26.6621,60.4727 26.5,62.5C 30.8333,63.8333 35.1667,65.1667 39.5,66.5 Z"/></g>
<g><path style="opacity:1" fill="#e4515c" d="M 85.5,75.5 C 90.169,82.1711 93.8356,89.5044 96.5,97.5C 94.3877,99.7705 91.721,101.104 88.5,101.5C 87.0484,100.698 85.3817,100.198 83.5,100C 83.9574,99.586 84.2907,99.086 84.5,98.5C 82.6667,94.1667 80.8333,89.8333 79,85.5C 78.0138,86.1712 76.8471,86.1712 75.5,85.5C 79.1667,82.5 82.5,79.1667 85.5,75.5 Z"/></g>
<g><path style="opacity:1" fill="#e75a54" d="M 75.5,85.5 C 76.8471,86.1712 78.0138,86.1712 79,85.5C 80.8333,89.8333 82.6667,94.1667 84.5,98.5C 84.2907,99.086 83.9574,99.586 83.5,100C 85.3817,100.198 87.0484,100.698 88.5,101.5C 83.228,102.4 77.8947,102.733 72.5,102.5C 73.0906,101.849 73.7573,101.182 74.5,100.5C 72.4867,96.4734 70.4867,92.4734 68.5,88.5C 70.5093,86.9348 72.8427,85.9348 75.5,85.5 Z"/></g>
<g><path style="opacity:1" fill="#f27a3a" d="M 47.5,102.5 C 35.2755,103.58 27.9421,98.2471 25.5,86.5C 26.2216,86.0825 26.7216,85.4158 27,84.5C 34.3718,90.0482 41.2051,96.0482 47.5,102.5 Z"/></g>
<g><path style="opacity:1" fill="#e95f4b" d="M 58.5,88.5 C 61.8333,88.5 65.1667,88.5 68.5,88.5C 70.4867,92.4734 72.4867,96.4734 74.5,100.5C 73.7573,101.182 73.0906,101.849 72.5,102.5C 70.1667,102.5 67.8333,102.5 65.5,102.5C 65.9175,101.778 66.5842,101.278 67.5,101C 65.1358,97.4414 63.4691,93.608 62.5,89.5C 60.901,89.7678 59.5676,89.4345 58.5,88.5 Z"/></g>
<g><path style="opacity:0.999" fill="#f47f32" d="M 15.5,82.5 C 15.8333,82.5 16.1667,82.5 16.5,82.5C 16.7087,87.6666 17.7087,92.6666 19.5,97.5C 18.8485,98.0906 18.1818,98.7573 17.5,99.5C 12.4848,96.1855 7.31814,95.8522 2,98.5C 1.66667,97.1667 1.33333,95.8333 1,94.5C 0.78997,96.0581 0.28997,97.3915 -0.5,98.5C -0.5,94.8333 -0.5,91.1667 -0.5,87.5C 1.29585,86.2073 2.96252,84.7073 4.5,83C 7.5,82.3333 10.5,82.3333 13.5,83C 14.8741,86.4101 15.5408,86.2434 15.5,82.5 Z"/></g>
<g><path style="opacity:0.981" fill="#f6852a" d="M 19.5,97.5 C 24.2308,104.892 30.8975,109.559 39.5,111.5C 39.0618,111.435 38.7284,111.601 38.5,112C 40.2784,117.061 41.6117,122.228 42.5,127.5C 37.8333,127.5 33.1667,127.5 28.5,127.5C 29.6085,126.71 30.9419,126.21 32.5,126C 31.2068,125.51 29.8734,125.343 28.5,125.5C 26.8375,109.986 18.1708,102.986 2.5,104.5C 2.64945,103.448 2.48278,102.448 2,101.5C 1.78997,103.058 1.28997,104.391 0.5,105.5C 0.737305,104.209 0.403972,103.209 -0.5,102.5C -0.5,101.167 -0.5,99.8333 -0.5,98.5C 0.28997,97.3915 0.78997,96.0581 1,94.5C 1.33333,95.8333 1.66667,97.1667 2,98.5C 7.31814,95.8522 12.4848,96.1855 17.5,99.5C 18.1818,98.7573 18.8485,98.0906 19.5,97.5 Z"/></g>
<g><path style="opacity:0.999" fill="#df436a" d="M 109.5,93.5 C 111.905,102.928 113.572,112.594 114.5,122.5C 113.833,122.5 113.5,122.833 113.5,123.5C 112.508,123.328 111.842,123.662 111.5,124.5C 110.508,124.328 109.842,124.662 109.5,125.5C 108.833,125.5 108.167,125.5 107.5,125.5C 107.611,124.883 107.944,124.383 108.5,124C 107.26,116.963 105.593,110.13 103.5,103.5C 105.965,100.386 107.965,97.0527 109.5,93.5 Z"/></g>
<g><path style="opacity:0.008" fill="#da3476" d="M 126.5,106.5 C 126.833,106.5 127.167,106.5 127.5,106.5C 127.5,107.5 127.5,108.5 127.5,109.5C 127.167,109.5 126.833,109.5 126.5,109.5C 126.5,108.5 126.5,107.5 126.5,106.5 Z"/></g>
<g><path style="opacity:0.999" fill="#e24a62" d="M 103.5,103.5 C 105.593,110.13 107.26,116.963 108.5,124C 107.944,124.383 107.611,124.883 107.5,125.5C 106.833,125.5 106.5,125.833 106.5,126.5C 104.901,126.232 103.568,126.566 102.5,127.5C 100.167,127.5 97.8333,127.5 95.5,127.5C 93.6846,126.209 92.6846,124.376 92.5,122C 91.6095,117.952 91.2762,114.118 91.5,110.5C 95.7603,108.7 99.7603,106.367 103.5,103.5 Z"/></g>
<g><path style="opacity:0.01" fill="#fa8e20" d="M 1.5,109.5 C 1.63101,110.239 1.46434,110.906 1,111.5C 0.308314,110.563 0.474981,109.897 1.5,109.5 Z"/></g>
<g><path style="opacity:0.008" fill="#da3574" d="M 125.5,109.5 C 125.833,109.5 126.167,109.5 126.5,109.5C 126.672,110.492 126.338,111.158 125.5,111.5C 125.5,110.833 125.5,110.167 125.5,109.5 Z"/></g>
<g><path style="opacity:0.998" fill="#f98e21" d="M 28.5,127.5 C 27.1667,127.5 25.8333,127.5 24.5,127.5C 23.4324,126.566 22.099,126.232 20.5,126.5C 18.351,125.264 16.0177,124.264 13.5,123.5C 9.83333,120.5 6.5,117.167 3.5,113.5C 3.3404,111.847 2.67373,110.514 1.5,109.5C 1.56745,108.041 1.23411,106.708 0.5,105.5C 1.28997,104.391 1.78997,103.058 2,101.5C 2.48278,102.448 2.64945,103.448 2.5,104.5C 18.1708,102.986 26.8375,109.986 28.5,125.5C 29.8734,125.343 31.2068,125.51 32.5,126C 30.9419,126.21 29.6085,126.71 28.5,127.5 Z"/></g>
<g><path style="opacity:0.999" fill="#ec6844" d="M 55.5,111.5 C 60.8333,111.5 66.1667,111.5 71.5,111.5C 71.1965,116.349 71.1965,121.682 71.5,127.5C 66.5,127.5 61.5,127.5 56.5,127.5C 56.9384,122.464 56.2717,117.631 54.5,113C 55.056,112.617 55.3893,112.117 55.5,111.5 Z"/></g>
<g><path style="opacity:0.999" fill="#e55458" d="M 86.5,111.5 C 87.9187,110.549 89.5853,110.216 91.5,110.5C 91.2762,114.118 91.6095,117.952 92.5,122C 92.6846,124.376 93.6846,126.209 95.5,127.5C 92.1667,127.5 88.8333,127.5 85.5,127.5C 85.6107,126.883 85.944,126.383 86.5,126C 85.4689,121.591 84.8022,117.091 84.5,112.5C 86.4008,112.754 87.0674,112.42 86.5,111.5 Z"/></g>
<g><path style="opacity:0.012" fill="#f88f20" d="M 2.5,113.5 C 1.83333,112.167 1.83333,112.167 2.5,113.5 Z"/></g>
<g><path style="opacity:0.997" fill="#f17735" d="M 39.5,111.5 C 44.8333,111.5 50.1667,111.5 55.5,111.5C 55.3893,112.117 55.056,112.617 54.5,113C 56.2717,117.631 56.9384,122.464 56.5,127.5C 51.8333,127.5 47.1667,127.5 42.5,127.5C 41.6117,122.228 40.2784,117.061 38.5,112C 38.7284,111.601 39.0618,111.435 39.5,111.5 Z"/></g>
<g><path style="opacity:0.997" fill="#e85b4f" d="M 71.5,111.5 C 76.5,111.5 81.5,111.5 86.5,111.5C 87.0674,112.42 86.4008,112.754 84.5,112.5C 84.8022,117.091 85.4689,121.591 86.5,126C 85.944,126.383 85.6107,126.883 85.5,127.5C 80.8333,127.5 76.1667,127.5 71.5,127.5C 71.1965,121.682 71.1965,116.349 71.5,111.5 Z"/></g>
<g><path style="opacity:0.008" fill="#db3774" d="M 124.5,111.5 C 124.833,111.5 125.167,111.5 125.5,111.5C 125.672,112.492 125.338,113.158 124.5,113.5C 124.5,112.833 124.5,112.167 124.5,111.5 Z"/></g>
<g><path style="opacity:0.006" fill="#db3773" d="M 123.5,113.5 C 123.833,113.5 124.167,113.5 124.5,113.5C 124.672,114.492 124.338,115.158 123.5,115.5C 123.5,114.833 123.5,114.167 123.5,113.5 Z"/></g>
<g><path style="opacity:0.004" fill="#f98f20" d="M 2.5,113.5 C 2.83333,113.5 3.16667,113.5 3.5,113.5C 3.16667,116.167 2.83333,116.167 2.5,113.5 Z"/></g>
<g><path style="opacity:0.012" fill="#da3872" d="M 122.5,115.5 C 122.833,115.5 123.167,115.5 123.5,115.5C 123.315,116.17 122.981,116.17 122.5,115.5 Z"/></g>
<g><path style="opacity:0.012" fill="#db3971" d="M 121.5,116.5 C 121.833,116.5 122.167,116.5 122.5,116.5C 122.315,117.17 121.981,117.17 121.5,116.5 Z"/></g>
<g><path style="opacity:0.008" fill="#db3b70" d="M 120.5,117.5 C 120.833,117.5 121.167,117.5 121.5,117.5C 121.315,118.17 120.981,118.17 120.5,117.5 Z"/></g>
<g><path style="opacity:0.004" fill="#db3a6f" d="M 119.5,119.5 C 120.833,120.167 120.833,120.167 119.5,119.5 Z"/></g>
<g><path style="opacity:0.008" fill="#dc3c6d" d="M 117.5,120.5 C 118.833,121.167 118.833,121.167 117.5,120.5 Z"/></g>
<g><path style="opacity:0.012" fill="#dc3c6d" d="M 116.5,121.5 C 116.833,121.5 117.167,121.5 117.5,121.5C 117.315,122.17 116.981,122.17 116.5,121.5 Z"/></g>
<g><path style="opacity:0.012" fill="#dd3d6d" d="M 115.5,122.5 C 115.833,122.5 116.167,122.5 116.5,122.5C 116.315,123.17 115.981,123.17 115.5,122.5 Z"/></g>
<g><path style="opacity:0.008" fill="#f98e20" d="M 13.5,123.5 C 13.5,123.833 13.5,124.167 13.5,124.5C 10.8333,124.167 10.8333,123.833 13.5,123.5 Z"/></g>
<g><path style="opacity:0.004" fill="#dd3e6c" d="M 113.5,124.5 C 113.5,124.167 113.5,123.833 113.5,123.5C 114.167,123.5 114.833,123.5 115.5,123.5C 115.158,124.338 114.492,124.672 113.5,124.5 Z"/></g>
<g><path style="opacity:0.012" fill="#f88e20" d="M 13.5,124.5 C 14.8333,125.167 14.8333,125.167 13.5,124.5 Z"/></g>
<g><path style="opacity:0.008" fill="#de3f6b" d="M 111.5,125.5 C 111.5,125.167 111.5,124.833 111.5,124.5C 112.167,124.5 112.833,124.5 113.5,124.5C 113.158,125.338 112.492,125.672 111.5,125.5 Z"/></g>
<g><path style="opacity:0.008" fill="#de4169" d="M 109.5,126.5 C 109.5,126.167 109.5,125.833 109.5,125.5C 110.167,125.5 110.833,125.5 111.5,125.5C 111.158,126.338 110.492,126.672 109.5,126.5 Z"/></g>
<g><path style="opacity:0.007" fill="#fa8e20" d="M 17.5,127.5 C 18.209,126.596 19.209,126.263 20.5,126.5C 20.5,126.833 20.5,127.167 20.5,127.5C 19.5,127.5 18.5,127.5 17.5,127.5 Z"/></g>
<g><path style="opacity:0.007" fill="#df4367" d="M 106.5,127.5 C 106.5,127.167 106.5,126.833 106.5,126.5C 107.5,126.5 108.5,126.5 109.5,126.5C 109.5,126.833 109.5,127.167 109.5,127.5C 108.5,127.5 107.5,127.5 106.5,127.5 Z"/></g>
</svg>
