<?xml version="1.0" encoding="UTF-8"?>
<!DOCTYPE svg PUBLIC "-//W3C//DTD SVG 1.1//EN" "http://www.w3.org/Graphics/SVG/1.1/DTD/svg11.dtd">
<svg xmlns="http://www.w3.org/2000/svg" version="1.1" width="128px" height="128px" style="shape-rendering:geometricPrecision; text-rendering:geometricPrecision; image-rendering:optimizeQuality; fill-rule:evenodd; clip-rule:evenodd" xmlns:xlink="http://www.w3.org/1999/xlink">
<g><path style="opacity:0.993" fill="#4a445d" d="M 32.5,9.5 C 53.1694,9.33338 73.836,9.50004 94.5,10C 106.667,12.8333 114.167,20.3333 117,32.5C 117.667,53.1667 117.667,73.8333 117,94.5C 114.167,106.667 106.667,114.167 94.5,117C 73.8333,117.667 53.1667,117.667 32.5,117C 20.3333,114.167 12.8333,106.667 10,94.5C 9.33333,73.8333 9.33333,53.1667 10,32.5C 13.0151,20.3193 20.5151,12.6526 32.5,9.5 Z M 40.5,58.5 C 55.837,58.3334 71.1703,58.5001 86.5,59C 90.5,62 90.5,65 86.5,68C 71.1667,68.6667 55.8333,68.6667 40.5,68C 36.5808,64.8397 36.5808,61.673 40.5,58.5 Z"/></g>
</svg>
