<?xml version="1.0" encoding="UTF-8"?>
<!DOCTYPE svg PUBLIC "-//W3C//DTD SVG 1.1//EN" "http://www.w3.org/Graphics/SVG/1.1/DTD/svg11.dtd">
<svg xmlns="http://www.w3.org/2000/svg" version="1.1" width="128px" height="128px" style="shape-rendering:geometricPrecision; text-rendering:geometricPrecision; image-rendering:optimizeQuality; fill-rule:evenodd; clip-rule:evenodd" xmlns:xlink="http://www.w3.org/1999/xlink">
<g><path style="opacity:0.898" fill="#535559" d="M -0.5,6.5 C 27.1667,6.5 54.8333,6.5 82.5,6.5C 82.5,24.5 82.5,42.5 82.5,60.5C 54.8333,60.5 27.1667,60.5 -0.5,60.5C -0.5,42.5 -0.5,24.5 -0.5,6.5 Z M 7.5,15.5 C 13.3248,15.4039 13.4914,17.0705 8,20.5C 7.50649,18.8659 7.33982,17.1992 7.5,15.5 Z M 21.5,15.5 C 34.5,15.5 47.5,15.5 60.5,15.5C 62.1667,23.1667 66.8333,27.8333 74.5,29.5C 74.5,32.1667 74.5,34.8333 74.5,37.5C 66.8333,39.1667 62.1667,43.8333 60.5,51.5C 47.5,51.5 34.5,51.5 21.5,51.5C 19.8333,43.8333 15.1667,39.1667 7.5,37.5C 7.5,34.8333 7.5,32.1667 7.5,29.5C 15.1667,27.8333 19.8333,23.1667 21.5,15.5 Z M 69.5,16.5 C 70.9187,15.5489 72.5853,15.2155 74.5,15.5C 74.7515,21.2344 73.0848,21.5677 69.5,16.5 Z M 38.5,26.5 C 45.7707,26.0357 48.604,29.3691 47,36.5C 45.1792,39.9907 42.3458,41.1574 38.5,40C 34.8759,37.8387 33.7093,34.672 35,30.5C 35.6897,28.6498 36.8564,27.3164 38.5,26.5 Z M 7.5,46.5 C 13.3318,49.6029 13.3318,51.2696 7.5,51.5C 7.5,49.8333 7.5,48.1667 7.5,46.5 Z M 73.5,46.5 C 74.4511,47.9187 74.7845,49.5853 74.5,51.5C 68.7656,51.7515 68.4323,50.0848 73.5,46.5 Z"/></g>
<g><path style="opacity:0.939" fill="#535559" d="M 97.5,14.5 C 111.287,15.7984 117.787,23.465 117,37.5C 120.311,33.4732 123.311,33.8066 126,38.5C 126.667,39.5 126.667,40.5 126,41.5C 121.652,46.0153 117.152,50.3487 112.5,54.5C 107.848,50.3487 103.348,46.0153 99,41.5C 98.7308,38.7202 99.8975,36.5536 102.5,35C 104.903,34.3698 106.737,35.2031 108,37.5C 109.157,29.8135 105.99,24.8135 98.5,22.5C 97.52,19.9135 97.1866,17.2469 97.5,14.5 Z"/></g>
<g><path style="opacity:0.921" fill="#545559" d="M 35.5,18.5 C 51.8177,17.3114 58.3177,24.6447 55,40.5C 50.4636,47.8438 43.9636,50.3438 35.5,48C 26.4046,43.3902 23.5713,36.2235 27,26.5C 29.0738,22.9231 31.9072,20.2565 35.5,18.5 Z M 38.5,26.5 C 36.8564,27.3164 35.6897,28.6498 35,30.5C 33.7093,34.672 34.8759,37.8387 38.5,40C 42.3458,41.1574 45.1792,39.9907 47,36.5C 48.604,29.3691 45.7707,26.0357 38.5,26.5 Z"/></g>
<g><path style="opacity:0.87" fill="#535659" d="M 127.5,66.5 C 127.5,84.5 127.5,102.5 127.5,120.5C 99.8333,120.5 72.1667,120.5 44.5,120.5C 44.5,102.5 44.5,84.5 44.5,66.5C 72.1667,66.5 99.8333,66.5 127.5,66.5 Z M 52.5,75.5 C 74.8333,75.5 97.1667,75.5 119.5,75.5C 119.5,77.5 119.5,79.5 119.5,81.5C 97.1667,81.5 74.8333,81.5 52.5,81.5C 52.5,79.5 52.5,77.5 52.5,75.5 Z M 52.5,90.5 C 74.8333,90.5 97.1667,90.5 119.5,90.5C 119.5,97.5 119.5,104.5 119.5,111.5C 97.1667,111.5 74.8333,111.5 52.5,111.5C 52.5,104.5 52.5,97.5 52.5,90.5 Z"/></g>
<g><path style="opacity:0.936" fill="#535559" d="M 13.5,72.5 C 18.7405,76.233 23.5738,80.5663 28,85.5C 28.2692,88.2798 27.1025,90.4464 24.5,92C 22.0966,92.6302 20.2633,91.7969 19,89.5C 17.8433,97.1865 21.0099,102.187 28.5,104.5C 29.48,107.086 29.8134,109.753 29.5,112.5C 15.6934,111.184 9.19338,103.517 10,89.5C 6.68866,93.5268 3.68866,93.1934 1,88.5C 0.333333,87.5 0.333333,86.5 1,85.5C 5.37016,81.2978 9.53682,76.9645 13.5,72.5 Z"/></g>
<g><path style="opacity:0.819" fill="#53555a" d="M 89.5,96.5 C 97.1667,96.5 104.833,96.5 112.5,96.5C 112.5,99.5 112.5,102.5 112.5,105.5C 104.833,105.5 97.1667,105.5 89.5,105.5C 89.5,102.5 89.5,99.5 89.5,96.5 Z"/></g>
</svg>
