<?xml version="1.0" encoding="UTF-8"?>
<!DOCTYPE svg PUBLIC "-//W3C//DTD SVG 1.1//EN" "http://www.w3.org/Graphics/SVG/1.1/DTD/svg11.dtd">
<svg xmlns="http://www.w3.org/2000/svg" version="1.1" width="128px" height="128px" style="shape-rendering:geometricPrecision; text-rendering:geometricPrecision; image-rendering:optimizeQuality; fill-rule:evenodd; clip-rule:evenodd" xmlns:xlink="http://www.w3.org/1999/xlink">
<g><path style="opacity:0.956" fill="#fefffe" d="M 56.5,11.5 C 79.4133,10.3188 88.5799,20.9854 84,43.5C 76.7495,55.14 66.5828,58.64 53.5,54C 41.8733,46.791 38.3733,36.6243 43,23.5C 46.2246,17.9856 50.7246,13.9856 56.5,11.5 Z"/></g>
<g><path style="opacity:0.976" fill="#fefffe" d="M 30.5,63.5 C 52.5025,63.3334 74.5025,63.5 96.5,64C 99.3333,65.5 101.5,67.6667 103,70.5C 105.902,90.5285 97.7355,103.695 78.5,110C 60.0535,115.179 43.8869,111.345 30,98.5C 23.8816,90.1471 21.8816,80.8138 24,70.5C 25.6941,67.6424 27.8607,65.309 30.5,63.5 Z"/></g>
</svg>
