<?xml version="1.0" encoding="UTF-8"?>
<!DOCTYPE svg PUBLIC "-//W3C//DTD SVG 1.1//EN" "http://www.w3.org/Graphics/SVG/1.1/DTD/svg11.dtd">
<svg xmlns="http://www.w3.org/2000/svg" version="1.1" width="128px" height="128px" style="shape-rendering:geometricPrecision; text-rendering:geometricPrecision; image-rendering:optimizeQuality; fill-rule:evenodd; clip-rule:evenodd" xmlns:xlink="http://www.w3.org/1999/xlink">
<g><path style="opacity:0.989" fill="#49445d" d="M 33.5,9.5 C 53.5028,9.33338 73.5028,9.50005 93.5,10C 107.349,11.8486 115.182,19.682 117,33.5C 117.667,53.5 117.667,73.5 117,93.5C 115.167,107.333 107.333,115.167 93.5,117C 73.5,117.667 53.5,117.667 33.5,117C 19.6514,115.151 11.818,107.318 10,93.5C 9.06731,71.4631 9.40064,49.4631 11,27.5C 14.8662,16.7862 22.3662,10.7862 33.5,9.5 Z M 61.5,40.5 C 63.7224,40.178 65.5557,40.8446 67,42.5C 67.4994,48.1569 67.6661,53.8236 67.5,59.5C 73.1764,59.3339 78.8431,59.5006 84.5,60C 87.1667,62.3333 87.1667,64.6667 84.5,67C 78.8431,67.4994 73.1764,67.6661 67.5,67.5C 67.6661,73.1764 67.4994,78.8431 67,84.5C 64.6667,87.1667 62.3333,87.1667 60,84.5C 59.5006,78.8431 59.3339,73.1764 59.5,67.5C 53.8236,67.6661 48.1569,67.4994 42.5,67C 39.8333,64.6667 39.8333,62.3333 42.5,60C 48.1569,59.5006 53.8236,59.3339 59.5,59.5C 59.3339,53.8236 59.5006,48.1569 60,42.5C 60.7172,41.9558 61.2172,41.2891 61.5,40.5 Z"/></g>
</svg>
