<?xml version="1.0" encoding="UTF-8"?>
<!DOCTYPE svg PUBLIC "-//W3C//DTD SVG 1.1//EN" "http://www.w3.org/Graphics/SVG/1.1/DTD/svg11.dtd">
<svg xmlns="http://www.w3.org/2000/svg" version="1.1" width="288px" height="288px" style="shape-rendering:geometricPrecision; text-rendering:geometricPrecision; image-rendering:optimizeQuality; fill-rule:evenodd; clip-rule:evenodd" xmlns:xlink="http://www.w3.org/1999/xlink">
<g><path style="opacity:0.992" fill="#241243" d="M 137.5,11.5 C 141.5,11.5 145.5,11.5 149.5,11.5C 149.5,19.5 149.5,27.5 149.5,35.5C 160.885,35.1884 172.218,35.5218 183.5,36.5C 194.191,50.0242 204.691,63.6908 215,77.5C 217.527,81.2211 219.527,85.2211 221,89.5C 221.667,147.5 221.667,205.5 221,263.5C 219.167,269.333 215.333,273.167 209.5,275C 165.5,275.667 121.5,275.667 77.5,275C 71.6667,273.167 67.8333,269.333 66,263.5C 65.3333,205.5 65.3333,147.5 66,89.5C 67.4728,85.2211 69.4728,81.2211 72,77.5C 82.5,63.6667 93,49.8333 103.5,36C 114.828,35.5001 126.162,35.3335 137.5,35.5C 137.5,27.5 137.5,19.5 137.5,11.5 Z M 110.5,47.5 C 119.5,47.5 128.5,47.5 137.5,47.5C 137.5,55.5 137.5,63.5 137.5,71.5C 131.5,71.5 125.5,71.5 119.5,71.5C 119.5,75.5 119.5,79.5 119.5,83.5C 135.5,83.5 151.5,83.5 167.5,83.5C 167.5,79.5 167.5,75.5 167.5,71.5C 161.5,71.5 155.5,71.5 149.5,71.5C 149.5,63.5 149.5,55.5 149.5,47.5C 158.173,47.3336 166.84,47.5002 175.5,48C 187.135,62.2939 197.969,77.1272 208,92.5C 209.646,147.463 209.979,202.463 209,257.5C 208.5,260.667 206.667,262.5 203.5,263C 163.5,263.667 123.5,263.667 83.5,263C 80.3333,262.5 78.5,260.667 78,257.5C 77.3333,204.167 77.3333,150.833 78,97.5C 78.2414,94.7111 78.908,92.0444 80,89.5C 90.4301,75.6182 100.597,61.6182 110.5,47.5 Z M 142.5,131.5 C 172.727,135.223 186.561,152.223 184,182.5C 176.194,206.494 159.694,216.994 134.5,214C 110.506,206.194 100.006,189.694 103,164.5C 108.803,144.519 121.97,133.519 142.5,131.5 Z"/></g>
<g><path style="opacity:0.973" fill="#241144" d="M 133.5,119.5 C 157.484,116.582 176.317,124.915 190,144.5C 199.969,163.824 199.969,183.158 190,202.5C 176.063,222.543 156.896,230.71 132.5,227C 109.667,221.5 95.5,207.333 90,184.5C 86.6099,150.561 101.11,128.894 133.5,119.5 Z M 142.5,131.5 C 121.97,133.519 108.803,144.519 103,164.5C 100.006,189.694 110.506,206.194 134.5,214C 159.694,216.994 176.194,206.494 184,182.5C 186.561,152.223 172.727,135.223 142.5,131.5 Z"/></g>
<g><path style="opacity:0.998" fill="#251144" d="M 137.5,143.5 C 141.5,143.5 145.5,143.5 149.5,143.5C 149.5,145.5 149.5,147.5 149.5,149.5C 153.5,149.5 157.5,149.5 161.5,149.5C 161.5,153.5 161.5,157.5 161.5,161.5C 153.5,161.5 145.5,161.5 137.5,161.5C 137.5,163.5 137.5,165.5 137.5,167.5C 144.841,167.334 152.174,167.5 159.5,168C 160,168.5 160.5,169 161,169.5C 161.667,178.167 161.667,186.833 161,195.5C 160.5,196 160,196.5 159.5,197C 156.183,197.498 152.85,197.665 149.5,197.5C 149.5,199.5 149.5,201.5 149.5,203.5C 145.5,203.5 141.5,203.5 137.5,203.5C 137.5,201.5 137.5,199.5 137.5,197.5C 133.5,197.5 129.5,197.5 125.5,197.5C 125.5,193.5 125.5,189.5 125.5,185.5C 133.5,185.5 141.5,185.5 149.5,185.5C 149.5,183.5 149.5,181.5 149.5,179.5C 142.159,179.666 134.826,179.5 127.5,179C 127,178.5 126.5,178 126,177.5C 125.333,168.833 125.333,160.167 126,151.5C 126.5,151 127,150.5 127.5,150C 130.817,149.502 134.15,149.335 137.5,149.5C 137.5,147.5 137.5,145.5 137.5,143.5 Z"/></g>
</svg>
