<svg id="SvgjsSvg1062" width="288" height="288" xmlns="http://www.w3.org/2000/svg" version="1.1" xmlns:xlink="http://www.w3.org/1999/xlink" xmlns:svgjs="http://svgjs.com/svgjs"><defs id="SvgjsDefs1063"></defs><g id="SvgjsG1064"><svg xmlns="http://www.w3.org/2000/svg" viewBox="0 0 72 72" width="288" height="288"><path d="M65.81 68h-60a2 2 0 010-4h60a2 2 0 010 4zM23.19 53.068A6.933 6.933 0 0116.258 60h-5.137a6.933 6.933 0 01-6.932-6.932V32.932A6.934 6.934 0 0111.122 26h5.137a6.933 6.933 0 016.932 6.932v20.136zm-4-20.136A2.932 2.932 0 0016.258 30h-5.137a2.932 2.932 0 00-2.932 2.932v20.137A2.933 2.933 0 0011.122 56h5.137a2.932 2.932 0 002.932-2.932V32.932zM46.19 53.068A6.933 6.933 0 0139.258 60h-5.137a6.933 6.933 0 01-6.932-6.932V21.932A6.933 6.933 0 0134.121 15h5.137a6.933 6.933 0 016.932 6.932v31.136zm-4-31.136A2.932 2.932 0 0039.258 19h-5.137a2.932 2.932 0 00-2.932 2.932v31.137a2.932 2.932 0 002.932 2.932h5.137a2.932 2.932 0 002.932-2.932V21.932zM56 19c-.553 0-.81-.447-.81-1v-6.038C55.19 10 56.801 10 57.456 10h2.354a1 1 0 110 2h-2.354c-.336 0-.531.016-.644.035L56.905 18c0 .553-.353 1-.905 1zM55.81 21.18c-.261 0-.521-.11-.71-.29-.181-.189-.29-.45-.29-.71s.109-.52.29-.71c.38-.38 1.05-.37 1.42 0 .18.19.29.44.29.71 0 .26-.11.521-.29.71a1.06 1.06 0 01-.71.29z" fill="#270b44" class="color000 svgShape"></path><path d="M68.19 53.068A6.933 6.933 0 0 1 61.258 60h-5.137a6.933 6.933 0 0 1-6.932-6.932V10.932A6.934 6.934 0 0 1 56.122 4h5.137a6.933 6.933 0 0 1 6.932 6.932v42.136zm-4-42.136A2.932 2.932 0 0 0 61.259 8h-5.137a2.932 2.932 0 0 0-2.932 2.932v42.137a2.932 2.932 0 0 0 2.932 2.932h5.137a2.932 2.932 0 0 0 2.932-2.932V10.932z" fill="#270b44" class="color000 svgShape"></path></svg></g></svg>